<svg xmlns="http://www.w3.org/2000/svg" viewBox="0 0 2560 1440">
  <rect width="2560" height="1440" fill="#020617"/>
  <rect width="2560" height="423" y="508" fill="#0f172a" opacity="0.5"/>
  <g transform="translate(1280, 720)">
    <g transform="translate(-450, -100)">
      <rect width="200" height="200" rx="40" fill="#1e293b" stroke="#334155" stroke-width="4"/>
      <circle cx="25" cy="25" r="8" fill="#475569"/>
      <circle cx="175" cy="25" r="8" fill="#475569"/>
      <circle cx="25" cy="175" r="8" fill="#475569"/>
      <circle cx="175" cy="175" r="8" fill="#475569"/>
      <g transform="translate(55, 55)">
        <rect x="0" y="0" width="26" height="26" rx="4" fill="#f97316"/>
        <rect x="32" y="0" width="26" height="26" rx="4" fill="#3b82f6"/>
        <rect x="64" y="0" width="26" height="26" rx="4" fill="#facc15"/>
        <rect x="0" y="32" width="26" height="26" rx="4" fill="#3b82f6"/>
        <rect x="32" y="32" width="26" height="26" rx="4" fill="#ef4444"/>
        <rect x="64" y="32" width="26" height="26" rx="4" fill="#10b981"/>
        <rect x="0" y="64" width="26" height="26" rx="4" fill="#10b981"/>
        <rect x="32" y="64" width="26" height="26" rx="4" fill="#facc15"/>
        <rect x="64" y="64" width="26" height="26" rx="4" fill="#f97316"/>
      </g>
      <text x="250" y="125" font-family="sans-serif" font-weight="900" font-size="80" fill="#FFFFFF" letter-spacing="12">
        RUBIK <tspan fill="#3b82f6" font-weight="400">·</tspan> VAULT
      </text>
    </g>
  </g>
</svg>
