<svg xmlns="http://www.w3.org/2000/svg" viewBox="0 0 512 600">
  <rect width="512" height="600" fill="transparent"/>
  <g transform="translate(106, 40)">
    <rect width="300" height="300" rx="60" fill="#1e293b" stroke="#334155" stroke-width="4"/>
    <circle cx="40" cy="40" r="10" fill="#475569"/>
    <circle cx="260" cy="40" r="10" fill="#475569"/>
    <circle cx="40" cy="260" r="10" fill="#475569"/>
    <circle cx="260" cy="260" r="10" fill="#475569"/>
    <g transform="translate(80, 80)">
      <rect x="0" y="0" width="40" height="40" rx="6" fill="#f97316"/>
      <rect x="50" y="0" width="40" height="40" rx="6" fill="#3b82f6"/>
      <rect x="100" y="0" width="40" height="40" rx="6" fill="#facc15"/>
      <rect x="0" y="50" width="40" height="40" rx="6" fill="#3b82f6"/>
      <rect x="50" y="50" width="40" height="40" rx="6" fill="#ef4444"/>
      <rect x="100" y="50" width="40" height="40" rx="6" fill="#10b981"/>
      <rect x="0" y="100" width="40" height="40" rx="6" fill="#10b981"/>
      <rect x="50" y="100" width="40" height="40" rx="6" fill="#facc15"/>
      <rect x="100" y="100" width="40" height="40" rx="6" fill="#f97316"/>
    </g>
  </g>
  <text x="50%" y="450" dominant-baseline="middle" text-anchor="middle" font-family="sans-serif" font-weight="900" font-size="60" fill="#FFFFFF" letter-spacing="8">
    RUBIK <tspan fill="#3b82f6" font-weight="400">·</tspan> VAULT
  </text>
</svg>
